<svg width="36" height="36" viewBox="0 0 36 36" fill="none" xmlns="http://www.w3.org/2000/svg">
<rect width="36" height="36" rx="6" fill="#F2F2F2"/>
<g clip-path="url(#clip0_24_75)">
<path d="M10.5 12.75C11.7426 12.75 12.75 11.7426 12.75 10.5C12.75 9.25736 11.7426 8.25 10.5 8.25C9.25736 8.25 8.25 9.25736 8.25 10.5C8.25 11.7426 9.25736 12.75 10.5 12.75Z" stroke="#000001" stroke-linecap="round" stroke-linejoin="round"/>
<path d="M12.75 10.5H27.75" stroke="#000001" stroke-linecap="round" stroke-linejoin="round"/>
<path d="M18 20.25C19.2426 20.25 20.25 19.2426 20.25 18C20.25 16.7574 19.2426 15.75 18 15.75C16.7574 15.75 15.75 16.7574 15.75 18C15.75 19.2426 16.7574 20.25 18 20.25Z" stroke="#000001" stroke-linecap="round" stroke-linejoin="round"/>
<path d="M8.25 18H15.75" stroke="#000001" stroke-linecap="round" stroke-linejoin="round"/>
<path d="M20.25 18H27.75" stroke="#000001" stroke-linecap="round" stroke-linejoin="round"/>
<path d="M25.5 27.75C26.7426 27.75 27.75 26.7426 27.75 25.5C27.75 24.2574 26.7426 23.25 25.5 23.25C24.2574 23.25 23.25 24.2574 23.25 25.5C23.25 26.7426 24.2574 27.75 25.5 27.75Z" stroke="#000001" stroke-linecap="round" stroke-linejoin="round"/>
<path d="M23.25 25.5H8.25" stroke="#000001" stroke-linecap="round" stroke-linejoin="round"/>
</g>
<defs>
<clipPath id="clip0_24_75">
<rect width="21" height="21" fill="white" transform="translate(7.5 7.5)"/>
</clipPath>
</defs>
</svg>
