<svg width="24" height="24" viewBox="0 0 24 24" fill="none" xmlns="http://www.w3.org/2000/svg">
<path d="M24 9.14526L15.372 8.3621L12 0L8.628 8.37474L0 9.14526L6.552 15.12L4.584 24L12 19.2884L19.416 24L17.46 15.12L24 9.14526ZM12 16.9263L7.488 19.7937L8.688 14.3874L4.704 10.7495L9.96 10.2695L12 5.17895L14.052 10.2821L19.308 10.7621L15.324 14.4L16.524 19.8063L12 16.9263Z" fill="#FAA916"/>
<line x1="13.5" y1="8" x2="13.5" y2="19" stroke="#FAA916"/>
<path d="M6.74199 10.4705C6.4529 10.563 6.11867 10.7274 5.81686 10.739C5.76248 10.7411 5.43334 10.8635 5.6005 10.8733C6.06731 10.9008 6.41195 10.8513 6.84644 11.0748C7.55809 11.4408 8.42152 12.2877 8.67433 13.0743C8.91214 13.8141 8.82354 14.6686 8.82354 15.4393C8.82354 16.2887 8.29025 17.1309 8.07001 17.9237C7.97512 18.2653 7.76993 18.5784 7.74919 18.9309C7.74474 19.0067 7.62418 19.2015 7.69697 18.9832C7.80686 18.6535 8.01521 18.3703 8.22668 18.1028C8.60135 17.629 9.06369 17.73 9.54723 17.4537C9.82672 17.294 9.92645 17.2661 9.64422 17.5358C9.28981 17.8745 8.94079 18.1827 8.60718 18.543C8.35443 18.816 8.09966 19.0804 7.83126 19.3487C7.74222 19.4378 7.63718 19.5133 7.69697 19.304C7.80697 18.919 8.16103 18.5863 8.43558 18.3117C9.23539 17.5119 10.3279 16.8177 11.405 16.5099C11.6462 16.441 11.8451 16.4364 11.8451 16.1444C11.8451 15.7246 11.9123 15.3024 11.9123 14.8723C11.9123 14.2528 11.9794 13.6219 11.9794 12.9885C11.9794 12.0148 11.9794 11.0412 11.9794 10.0676C11.9794 9.68922 12.1137 9.33371 12.1137 8.95966C12.1137 8.65554 12.1129 8.376 12.1771 8.08675C12.2983 7.54136 12.248 6.90675 12.248 6.34093C12.248 6.20664 12.248 6.07235 12.248 5.93805C12.248 5.61628 11.9698 6.19493 11.9421 6.24021C11.6986 6.63864 11.3705 7.1964 11.2408 7.65029C10.9944 8.51294 10.4302 9.34474 10.0695 10.1646C9.93205 10.4769 9.81101 10.7952 9.66661 11.1046C9.58336 11.283 9.55988 11.5466 9.39429 11.6791C9.18358 11.8477 9.80317 13.3818 9.86432 13.6264C9.99942 14.1668 10.2336 14.6824 10.2336 15.2379" stroke="#FAA916" stroke-width="3" stroke-linecap="round"/>
<path d="M10.2336 15.2379C10.6328 15.6491 10.9628 16.0623 11.4087 16.4092C11.6546 16.6004 11.9218 16.7438 12.1809 16.9165" stroke="#FAA916" stroke-width="3" stroke-linecap="round"/>
</svg>
